<svg width="452" height="418" viewBox="0 0 452 418" fill="none" xmlns="http://www.w3.org/2000/svg">
<g filter="url(#filter0_d_2671_9292)">
<rect width="241.196" height="241.196" transform="matrix(0.707103 -0.707111 0.707103 0.707111 73.0586 177.448)" fill="#3162B9"/>
</g>
<g filter="url(#filter1_d_2671_9292)">
<rect width="241.196" height="241.196" transform="matrix(0.707103 -0.707111 0.707103 0.707111 38 175.552)" fill="#3B539B"/>
</g>
<path opacity="0.15" d="M184.837 88.8167C184.837 88.8167 232.564 48.2784 296.4 88.8167C352.998 124.79 345.528 215.409 320.019 253.035" stroke="white" stroke-width="1.48449" stroke-miterlimit="10" stroke-linecap="round"/>
<path opacity="0.15" d="M179.993 91.5328C179.993 91.5328 166.061 106.041 161.979 115.279" stroke="white" stroke-width="1.48449" stroke-miterlimit="10" stroke-linecap="round"/>
<path opacity="0.15" d="M156.266 104.738C156.266 104.738 151.641 115.28 151.641 121.257" stroke="white" stroke-width="1.48449" stroke-miterlimit="10" stroke-linecap="round"/>
<path opacity="0.15" d="M159.313 244.613C159.313 244.613 128.51 220.974 119.64 177.61" stroke="white" stroke-width="1.48449" stroke-miterlimit="10" stroke-linecap="round"/>
<path opacity="0.15" d="M151.641 192.988C151.641 192.988 154.362 217.713 182.661 242.003" stroke="white" stroke-width="1.48449" stroke-miterlimit="10" stroke-linecap="round"/>
<path opacity="0.15" d="M205.026 87.838C205.026 87.838 186.741 91.3701 168.51 119.627" stroke="white" stroke-width="1.48449" stroke-miterlimit="10" stroke-linecap="round"/>
<path opacity="0.15" d="M310.004 263.631C310.004 263.631 293.569 283.465 230.604 278.303" stroke="white" stroke-width="1.48449" stroke-miterlimit="10" stroke-linecap="round"/>
<path opacity="0.15" d="M316.534 260.914C316.534 260.914 324.969 256.295 328.779 252.6" stroke="white" stroke-width="1.48449" stroke-miterlimit="10" stroke-linecap="round"/>
<path opacity="0.15" d="M280.616 260.914C280.616 260.914 304.561 256.839 310.004 250.318" stroke="white" stroke-width="1.48449" stroke-miterlimit="10" stroke-linecap="round"/>
<path opacity="0.15" d="M311.908 147.342C311.908 147.342 314.901 155.764 314.901 159.568" stroke="white" stroke-width="1.48449" stroke-miterlimit="10" stroke-linecap="round"/>
<path opacity="0.15" d="M294.767 242.004C294.767 242.004 276.917 253.035 244.047 243.254" stroke="white" stroke-width="1.48449" stroke-miterlimit="10" stroke-linecap="round"/>
<path opacity="0.15" d="M186.797 108.052C186.797 108.052 195.776 99.9013 220.538 94.25" stroke="white" stroke-width="1.48449" stroke-miterlimit="10" stroke-linecap="round"/>
<path opacity="0.3" d="M342.439 90.1744C342.004 90.1744 341.623 89.9027 341.46 89.4679C341.405 89.3049 341.351 89.1419 341.351 88.9789C341.133 88.0551 340.807 86.8053 339.664 85.6642C338.521 84.5231 337.106 84.1427 336.181 83.9253C336.018 83.871 335.854 83.8166 335.746 83.8166C335.31 83.708 335.038 83.3276 335.038 82.8385C335.038 82.4038 335.31 82.0234 335.746 81.8604C335.854 81.8061 335.963 81.8061 336.072 81.7517C336.943 81.5344 338.303 81.154 339.555 79.9585C340.752 78.7631 341.079 77.4046 341.351 76.5352C341.405 76.4265 341.405 76.2635 341.46 76.1548C341.569 75.7201 341.95 75.4484 342.439 75.4484C342.875 75.4484 343.256 75.7201 343.419 76.1548C343.473 76.3178 343.473 76.4265 343.528 76.5895C343.745 77.4589 344.072 78.6544 345.215 79.7955C346.412 80.991 347.936 81.4257 348.861 81.7517L349.079 81.8061C349.514 81.9148 349.786 82.3495 349.786 82.7842C349.786 83.2189 349.46 83.5993 349.024 83.7623C348.861 83.8166 348.752 83.8166 348.534 83.871C347.664 84.0883 346.466 84.36 345.269 85.5555C344.072 86.751 343.691 88.1638 343.473 89.1419C343.419 89.3049 343.419 89.4136 343.364 89.5223C343.31 89.8483 342.875 90.1744 342.439 90.1744ZM338.195 82.7842C339.065 83.1102 339.99 83.6536 340.861 84.4687C341.677 85.2838 342.167 86.2076 342.494 86.9683C342.82 86.0989 343.364 85.1751 344.181 84.3057C345.052 83.4363 345.922 82.9472 346.684 82.6755C345.813 82.2951 344.888 81.7517 344.018 80.9366C343.201 80.1216 342.711 79.2521 342.385 78.4914C342.058 79.3065 341.514 80.1759 340.698 81.0453C339.882 81.9148 339.011 82.4038 338.195 82.7842Z" fill="white"/>
<path opacity="0.3" d="M205.787 133.677C205.352 133.677 204.971 133.405 204.807 132.97C204.753 132.807 204.699 132.644 204.699 132.481C204.481 131.558 204.154 130.308 203.012 129.167C201.869 128.025 200.454 127.645 199.529 127.428C199.365 127.373 199.202 127.319 199.093 127.319C198.658 127.21 198.386 126.83 198.386 126.341C198.386 125.906 198.658 125.526 199.093 125.363C199.202 125.309 199.311 125.309 199.42 125.254C200.29 125.037 201.651 124.656 202.903 123.461C204.1 122.266 204.426 120.907 204.699 120.038C204.753 119.929 204.753 119.766 204.807 119.657C204.916 119.223 205.297 118.951 205.787 118.951C206.222 118.951 206.603 119.223 206.767 119.657C206.821 119.82 206.821 119.929 206.875 120.092C207.093 120.961 207.42 122.157 208.562 123.298C209.76 124.493 211.284 124.928 212.209 125.254L212.426 125.309C212.862 125.417 213.134 125.852 213.134 126.287C213.134 126.721 212.807 127.102 212.372 127.265C212.209 127.319 212.1 127.319 211.882 127.373C211.011 127.591 209.814 127.862 208.617 129.058C207.42 130.253 207.039 131.666 206.821 132.644C206.767 132.807 206.767 132.916 206.712 133.025C206.658 133.351 206.222 133.677 205.787 133.677ZM201.542 126.287C202.413 126.613 203.338 127.156 204.209 127.971C205.025 128.786 205.515 129.71 205.841 130.471C206.168 129.601 206.712 128.678 207.528 127.808C208.399 126.939 209.27 126.45 210.032 126.178C209.161 125.798 208.236 125.254 207.365 124.439C206.549 123.624 206.059 122.755 205.733 121.994C205.406 122.809 204.862 123.678 204.046 124.548C203.229 125.417 202.358 125.906 201.542 126.287Z" fill="white"/>
<path opacity="0.3" d="M172.863 83.9257C172.428 83.9257 172.047 83.654 171.884 83.2193C171.829 83.0563 171.775 82.8933 171.775 82.7302C171.557 81.8065 171.231 80.5567 170.088 79.4155C168.945 78.2744 167.53 77.894 166.605 77.6767C166.441 77.6223 166.278 77.568 166.169 77.568C165.734 77.4593 165.462 77.0789 165.462 76.5899C165.462 76.1552 165.734 75.7748 166.169 75.6118C166.278 75.5574 166.387 75.5574 166.496 75.5031C167.367 75.2857 168.727 74.9054 169.979 73.7099C171.176 72.5144 171.503 71.1559 171.775 70.2865C171.829 70.1778 171.829 70.0148 171.884 69.9061C171.992 69.4714 172.373 69.1997 172.863 69.1997C173.299 69.1997 173.679 69.4714 173.843 69.9061C173.897 70.0691 173.897 70.1778 173.952 70.3408C174.169 71.2103 174.496 72.4057 175.639 73.5469C176.836 74.7423 178.36 75.177 179.285 75.5031L179.503 75.5574C179.938 75.6661 180.21 76.1008 180.21 76.5355C180.21 76.9703 179.883 77.3506 179.448 77.5136C179.285 77.568 179.176 77.568 178.958 77.6223C178.088 77.8397 176.89 78.1114 175.693 79.3068C174.496 80.5023 174.115 81.9151 173.897 82.8933C173.843 83.0563 173.843 83.1649 173.788 83.2736C173.734 83.5997 173.299 83.9257 172.863 83.9257ZM168.618 76.5355C169.489 76.8616 170.414 77.405 171.285 78.2201C172.101 79.0351 172.591 79.9589 172.918 80.7197C173.244 79.8502 173.788 78.9265 174.605 78.057C175.475 77.1876 176.346 76.6986 177.108 76.4269C176.237 76.0465 175.312 75.5031 174.441 74.688C173.625 73.8729 173.135 73.0035 172.809 72.2427C172.482 73.0578 171.938 73.9272 171.122 74.7967C170.305 75.6661 169.489 76.1552 168.618 76.5355Z" fill="white"/>
<path opacity="0.3" d="M309.737 119.579C309.302 119.579 308.921 119.307 308.758 118.872C308.703 118.709 308.649 118.546 308.649 118.383C308.431 117.459 308.105 116.209 306.962 115.068C305.819 113.927 304.404 113.547 303.479 113.329C303.316 113.275 303.152 113.221 303.043 113.221C302.608 113.112 302.336 112.732 302.336 112.243C302.336 111.808 302.608 111.428 303.043 111.265C303.152 111.21 303.261 111.21 303.37 111.156C304.241 110.939 305.601 110.558 306.853 109.363C308.05 108.167 308.377 106.809 308.649 105.939C308.703 105.831 308.703 105.668 308.758 105.559C308.866 105.124 309.247 104.853 309.737 104.853C310.173 104.853 310.553 105.124 310.717 105.559C310.771 105.722 310.771 105.831 310.826 105.994C311.043 106.863 311.37 108.059 312.513 109.2C313.71 110.395 315.234 110.83 316.159 111.156L316.377 111.21C316.812 111.319 317.084 111.754 317.084 112.188C317.084 112.623 316.757 113.003 316.322 113.166C316.159 113.221 316.05 113.221 315.832 113.275C314.962 113.493 313.764 113.764 312.567 114.96C311.37 116.155 310.989 117.568 310.771 118.546C310.717 118.709 310.717 118.818 310.662 118.926C310.608 119.252 310.173 119.579 309.737 119.579ZM305.492 112.188C306.363 112.514 307.288 113.058 308.159 113.873C308.975 114.688 309.465 115.612 309.792 116.373C310.118 115.503 310.662 114.579 311.479 113.71C312.349 112.84 313.22 112.351 313.982 112.08C313.111 111.699 312.186 111.156 311.315 110.341C310.499 109.526 310.009 108.656 309.683 107.896C309.356 108.711 308.812 109.58 307.996 110.45C307.179 111.319 306.363 111.808 305.492 112.188Z" fill="white"/>
<path opacity="0.3" d="M89.7079 90.7179C89.2725 90.7179 88.8916 90.4462 88.7283 90.0115C88.6739 89.8485 88.6195 89.6855 88.6195 89.5225C88.4018 88.5987 88.0753 87.3489 86.9324 86.2078C85.7896 85.0666 84.3746 84.6863 83.4495 84.4689C83.2862 84.4146 83.123 84.3602 83.0141 84.3602C82.5787 84.2515 82.3066 83.8712 82.3066 83.3821C82.3066 82.9474 82.5787 82.567 83.0141 82.404C83.123 82.3497 83.2318 82.3497 83.3406 82.2953C84.2114 82.078 85.5719 81.6976 86.8236 80.5021C88.0208 79.3066 88.3474 77.9482 88.6195 77.0787C88.6739 76.9701 88.6739 76.807 88.7283 76.6984C88.8372 76.2636 89.2181 75.9919 89.7079 75.9919C90.1433 75.9919 90.5242 76.2636 90.6875 76.6984C90.7419 76.8614 90.7419 76.9701 90.7963 77.1331C91.014 78.0025 91.3405 79.198 92.4834 80.3391C93.6806 81.5346 95.2044 81.9693 96.1296 82.2953L96.3473 82.3497C96.7826 82.4583 97.0547 82.8931 97.0547 83.3278C97.0547 83.7625 96.7282 84.1429 96.2928 84.3059C96.1296 84.3602 96.0207 84.3602 95.803 84.4146C94.9323 84.6319 93.735 84.9036 92.5378 86.0991C91.3405 87.2945 90.9596 88.7074 90.7419 89.6855C90.6875 89.8485 90.6875 89.9572 90.633 90.0659C90.5786 90.3919 90.1433 90.7179 89.7079 90.7179ZM85.4631 83.3278C86.3338 83.6538 87.2589 84.1972 88.1297 85.0123C88.946 85.8274 89.4358 86.7512 89.7623 87.5119C90.0888 86.6425 90.633 85.7187 91.4494 84.8493C92.3201 83.9798 93.1908 83.4908 93.9527 83.2191C93.082 82.8387 92.1568 82.2953 91.2861 81.4802C90.4698 80.6651 89.98 79.7957 89.6535 79.035C89.3269 79.85 88.7827 80.7195 87.9664 81.5889C87.1501 82.4583 86.2794 82.9474 85.4631 83.3278Z" fill="white"/>
<path opacity="0.3" d="M367.218 200.804C366.782 200.804 366.401 200.532 366.238 200.098C366.184 199.935 366.129 199.772 366.129 199.609C365.912 198.685 365.585 197.435 364.442 196.294C363.299 195.153 361.884 194.772 360.959 194.555C360.796 194.501 360.633 194.446 360.524 194.446C360.089 194.338 359.816 193.957 359.816 193.468C359.816 193.034 360.089 192.653 360.524 192.49C360.633 192.436 360.742 192.436 360.85 192.381C361.721 192.164 363.082 191.784 364.333 190.588C365.531 189.393 365.857 188.034 366.129 187.165C366.184 187.056 366.184 186.893 366.238 186.785C366.347 186.35 366.728 186.078 367.218 186.078C367.653 186.078 368.034 186.35 368.197 186.785C368.252 186.948 368.252 187.056 368.306 187.219C368.524 188.089 368.85 189.284 369.993 190.425C371.19 191.621 372.714 192.055 373.639 192.381L373.857 192.436C374.292 192.545 374.564 192.979 374.564 193.414C374.564 193.849 374.238 194.229 373.803 194.392C373.639 194.446 373.53 194.446 373.313 194.501C372.442 194.718 371.245 194.99 370.048 196.185C368.85 197.381 368.469 198.794 368.252 199.772C368.197 199.935 368.197 200.043 368.143 200.152C368.088 200.478 367.653 200.804 367.218 200.804ZM362.973 193.414C363.844 193.74 364.769 194.283 365.639 195.098C366.456 195.914 366.946 196.837 367.272 197.598C367.599 196.729 368.143 195.805 368.959 194.935C369.83 194.066 370.701 193.577 371.462 193.305C370.592 192.925 369.667 192.381 368.796 191.566C367.98 190.751 367.49 189.882 367.163 189.121C366.837 189.936 366.293 190.806 365.476 191.675C364.66 192.545 363.789 193.034 362.973 193.414Z" fill="white"/>
<path opacity="0.3" d="M222.439 159.785C222.167 159.785 221.949 159.622 221.84 159.351C221.786 159.242 221.786 159.133 221.786 159.025C221.677 158.481 221.459 157.666 220.752 157.014C220.044 156.308 219.174 156.09 218.629 155.927C218.521 155.873 218.412 155.873 218.357 155.873C218.085 155.819 217.922 155.547 217.922 155.275C217.922 155.003 218.085 154.786 218.357 154.677C218.412 154.623 218.466 154.623 218.575 154.623C219.119 154.514 219.935 154.243 220.697 153.536C221.459 152.776 221.622 151.96 221.786 151.417C221.84 151.363 221.84 151.254 221.84 151.2C221.895 150.928 222.167 150.765 222.439 150.765C222.711 150.765 222.929 150.928 223.037 151.2C223.092 151.308 223.092 151.363 223.092 151.471C223.201 152.015 223.418 152.721 224.126 153.428C224.888 154.188 225.813 154.406 226.357 154.623L226.466 154.677C226.738 154.732 226.901 155.003 226.901 155.275C226.901 155.547 226.684 155.764 226.412 155.873C226.303 155.927 226.248 155.927 226.085 155.927C225.541 156.036 224.833 156.253 224.071 156.96C223.31 157.72 223.092 158.59 222.983 159.188C222.929 159.296 222.929 159.351 222.929 159.405C222.929 159.622 222.711 159.785 222.439 159.785ZM219.827 155.275C220.371 155.493 220.915 155.819 221.459 156.308C221.949 156.797 222.276 157.394 222.439 157.829C222.656 157.286 222.983 156.742 223.473 156.199C224.017 155.656 224.561 155.384 224.997 155.221C224.452 155.003 223.908 154.677 223.364 154.134C222.874 153.645 222.548 153.102 222.384 152.613C222.167 153.102 221.84 153.645 221.35 154.188C220.861 154.732 220.316 155.058 219.827 155.275Z" fill="white"/>
<path opacity="0.3" d="M141.733 92.6747C141.461 92.6747 141.244 92.5116 141.135 92.2399C141.08 92.1313 141.08 92.0226 141.08 91.9682C140.971 91.4249 140.754 90.6641 140.101 90.012C139.448 89.36 138.577 89.1426 138.033 88.9796C137.924 88.9252 137.815 88.9252 137.761 88.9252C137.488 88.8709 137.325 88.6535 137.325 88.3275C137.325 88.0558 137.488 87.8384 137.761 87.7298C137.815 87.6754 137.869 87.6754 137.978 87.6754C138.468 87.5668 139.284 87.3494 140.046 86.643C140.754 85.9366 140.917 85.1215 141.08 84.6324C141.135 84.5781 141.135 84.4694 141.135 84.4151C141.189 84.1434 141.407 83.9803 141.733 83.9803C142.005 83.9803 142.223 84.1434 142.332 84.4151C142.386 84.5237 142.386 84.5781 142.386 84.6868C142.495 85.1758 142.713 85.8822 143.366 86.5886C144.073 87.2951 144.944 87.5668 145.488 87.7298L145.597 87.7841C145.869 87.8384 146.033 88.1101 146.033 88.3818C146.033 88.6535 145.815 88.8709 145.597 88.9796C145.488 89.0339 145.434 89.0339 145.325 89.0339C144.835 89.1426 144.128 89.3056 143.42 90.012C142.713 90.7184 142.495 91.5335 142.386 92.1313C142.332 92.2399 142.332 92.2943 142.332 92.3486C142.223 92.4573 142.005 92.6747 141.733 92.6747ZM139.23 88.2732C139.72 88.4905 140.264 88.7622 140.808 89.2513C141.298 89.7403 141.57 90.2837 141.788 90.7184C142.005 90.2294 142.278 89.686 142.767 89.1426C143.257 88.6535 143.801 88.3275 144.237 88.1645C143.747 87.9471 143.203 87.6211 142.658 87.132C142.169 86.643 141.897 86.1539 141.679 85.7192C141.461 86.2083 141.189 86.6973 140.699 87.2407C140.21 87.7841 139.665 88.0558 139.23 88.2732Z" fill="white"/>
<path opacity="0.3" d="M278.609 128.328C278.337 128.328 278.119 128.165 278.011 127.893C277.956 127.785 277.956 127.676 277.956 127.622C277.847 127.078 277.63 126.318 276.977 125.665C276.324 125.013 275.453 124.796 274.909 124.633C274.8 124.579 274.691 124.579 274.637 124.579C274.364 124.524 274.201 124.307 274.201 123.981C274.201 123.709 274.364 123.492 274.637 123.383C274.691 123.329 274.745 123.329 274.854 123.329C275.344 123.22 276.16 123.003 276.922 122.296C277.63 121.59 277.793 120.775 277.956 120.286C278.011 120.232 278.011 120.123 278.011 120.069C278.065 119.797 278.283 119.634 278.609 119.634C278.881 119.634 279.099 119.797 279.208 120.069C279.262 120.177 279.262 120.232 279.262 120.34C279.371 120.829 279.589 121.536 280.242 122.242C280.949 122.948 281.82 123.22 282.364 123.383L282.473 123.438C282.745 123.492 282.909 123.764 282.909 124.035C282.909 124.307 282.691 124.524 282.473 124.633C282.364 124.687 282.31 124.687 282.201 124.687C281.711 124.796 281.004 124.959 280.296 125.665C279.589 126.372 279.371 127.187 279.262 127.785C279.208 127.893 279.208 127.948 279.208 128.002C279.099 128.111 278.881 128.328 278.609 128.328ZM276.106 123.927C276.596 124.144 277.14 124.416 277.684 124.905C278.174 125.394 278.446 125.937 278.664 126.372C278.881 125.883 279.153 125.339 279.643 124.796C280.133 124.307 280.677 123.981 281.113 123.818C280.623 123.601 280.079 123.275 279.534 122.785C279.045 122.296 278.773 121.807 278.555 121.373C278.337 121.862 278.065 122.351 277.575 122.894C277.085 123.438 276.541 123.709 276.106 123.927Z" fill="white"/>
<path opacity="0.3" d="M112.293 252.437C111.749 252.437 111.205 252.056 111.041 251.513C110.987 251.296 110.878 251.078 110.878 250.861C110.606 249.666 110.171 248.035 108.701 246.568C107.232 245.101 105.381 244.612 104.184 244.286C103.967 244.232 103.749 244.123 103.64 244.123C103.096 243.96 102.715 243.471 102.715 242.873C102.715 242.33 103.096 241.786 103.64 241.623C103.803 241.569 103.912 241.569 104.075 241.46C105.218 241.189 106.96 240.7 108.592 239.124C110.171 237.548 110.551 235.809 110.932 234.668C110.987 234.505 110.987 234.287 111.096 234.179C111.259 233.635 111.749 233.255 112.347 233.255C112.892 233.255 113.436 233.635 113.599 234.179C113.653 234.396 113.653 234.559 113.762 234.722C114.034 235.863 114.47 237.385 115.939 238.906C117.517 240.482 119.477 241.026 120.674 241.46L120.946 241.515C121.49 241.678 121.871 242.221 121.871 242.764C121.871 243.308 121.436 243.851 120.891 244.014C120.674 244.069 120.51 244.069 120.238 244.177C119.096 244.449 117.572 244.829 115.994 246.351C114.415 247.927 113.926 249.774 113.653 251.024C113.599 251.241 113.599 251.404 113.49 251.513C113.381 252.002 112.892 252.437 112.293 252.437ZM106.796 242.819C107.939 243.253 109.137 243.96 110.279 244.992C111.368 246.079 111.966 247.275 112.402 248.253C112.837 247.112 113.545 245.916 114.579 244.775C115.721 243.634 116.864 242.982 117.844 242.656C116.701 242.167 115.504 241.46 114.361 240.373C113.273 239.287 112.674 238.2 112.239 237.167C111.803 238.254 111.096 239.341 110.062 240.482C108.973 241.678 107.776 242.33 106.796 242.819Z" fill="white"/>
<path opacity="0.3" d="M127.15 274.826C126.878 274.826 126.66 274.663 126.552 274.391C126.497 274.282 126.497 274.174 126.497 274.119C126.388 273.576 126.171 272.815 125.518 272.163C124.865 271.511 123.994 271.294 123.45 271.131C123.341 271.076 123.232 271.076 123.178 271.076C122.905 271.022 122.742 270.805 122.742 270.479C122.742 270.207 122.905 269.99 123.178 269.881C123.232 269.827 123.286 269.827 123.395 269.827C123.885 269.718 124.701 269.501 125.463 268.794C126.171 268.088 126.334 267.273 126.497 266.784C126.552 266.729 126.552 266.621 126.552 266.566C126.606 266.294 126.824 266.131 127.15 266.131C127.422 266.131 127.64 266.294 127.749 266.566C127.803 266.675 127.803 266.729 127.803 266.838C127.912 267.327 128.13 268.033 128.783 268.74C129.49 269.446 130.361 269.718 130.905 269.881L131.014 269.935C131.286 269.99 131.45 270.261 131.45 270.533C131.45 270.805 131.232 271.022 131.014 271.131C130.905 271.185 130.851 271.185 130.742 271.185C130.252 271.294 129.545 271.457 128.837 272.163C128.13 272.87 127.912 273.685 127.803 274.282C127.749 274.391 127.749 274.445 127.749 274.5C127.64 274.608 127.422 274.826 127.15 274.826ZM124.647 270.479C125.137 270.696 125.681 270.968 126.225 271.457C126.715 271.946 126.987 272.489 127.205 272.924C127.422 272.435 127.694 271.891 128.184 271.348C128.674 270.859 129.218 270.533 129.654 270.37C129.164 270.153 128.62 269.827 128.075 269.337C127.586 268.848 127.314 268.359 127.096 267.925C126.878 268.414 126.606 268.903 126.116 269.446C125.626 269.935 125.082 270.207 124.647 270.479Z" fill="white"/>
<path opacity="0.15" d="M342.413 207.136C342.413 207.136 351.918 182.318 342.413 156.752" stroke="white" stroke-width="1.48449" stroke-miterlimit="10" stroke-linecap="round"/>
<path opacity="0.15" d="M347.628 160.573C347.628 160.573 346.583 149.108 343.695 143.875" stroke="white" stroke-width="1.48449" stroke-miterlimit="10" stroke-linecap="round"/>
<path opacity="0.15" d="M330.177 181.609C330.177 181.609 331.42 193.672 321.297 216.966" stroke="white" stroke-width="1.48449" stroke-miterlimit="10" stroke-linecap="round"/>
<path d="M286.7 58.2114L277.721 63.4823L268.741 58.2114V47.6152L277.721 42.2899L286.7 47.6152V58.2114Z" fill="#3E28B4"/>
<path d="M260.546 85.0978L236.029 99.2034L211.513 85.0978V56.8865L236.029 42.7809L260.546 56.8865V85.0978Z" fill="#3E28B4"/>
<path d="M259.204 84.0904L234.015 98.5319L208.827 84.0904V55.2075L234.015 40.766L259.204 55.2075V84.0904Z" fill="#8E3FDF"/>
<path d="M259.876 78.9944L239.036 56.3068L238.772 76.6201H234.551L220.042 60.5278L214.766 59.4725L211.632 50.8895H200.784V76.8839L207.379 77.6753V84.2705L223.735 93.24L234.551 99.0438L259.876 84.2705V78.9944Z" fill="url(#paint0_linear_2671_9292)"/>
<path d="M219.465 59.4506H208.715C207.73 59.4506 206.924 60.2435 206.924 61.2126V83.2387C206.924 84.2079 207.73 85.0008 208.715 85.0008H219.465C220.451 85.0008 221.257 84.2079 221.257 83.2387V61.2126C221.257 60.2435 220.451 59.4506 219.465 59.4506ZM214.18 83.5912C213.374 83.5912 212.657 82.9744 212.657 82.0934C212.657 81.2123 213.284 80.5956 214.18 80.5956C214.986 80.5956 215.703 81.2123 215.703 82.0934C215.703 82.9744 214.986 83.5912 214.18 83.5912ZM220.038 79.7146H208.431V61.0555H220.038V79.7146Z" fill="white"/>
<path d="M238.784 51.2642H201.815C200.842 51.2642 200.046 52.0611 200.046 53.0352V76.0589C200.046 77.0329 200.842 77.8299 201.815 77.8299H208.17V76.6202H201.311V53.9207H235.247V76.6202H223.66V77.8299H238.784C239.757 77.8299 240.553 77.0329 240.553 76.0589V53.0352C240.553 52.0611 239.757 51.2642 238.784 51.2642ZM237.723 65.8753C236.927 65.8753 236.308 65.2555 236.308 64.4585C236.308 63.6615 236.927 63.0417 237.723 63.0417C238.519 63.0417 239.138 63.6615 239.138 64.4585C239.138 65.2555 238.519 65.8753 237.723 65.8753Z" fill="white"/>
<path d="M222.578 49.8428L213.599 55.1138L204.619 49.8428V39.2467L213.599 33.9214L222.578 39.2467V49.8428Z" fill="#3E28B4"/>
<path d="M221.49 49.2998L212.511 54.5707L203.531 49.2998V38.7036L212.511 33.3783L221.49 38.7036V49.2998Z" fill="#8E3FDF"/>
<path d="M285.613 57.6678L276.634 62.9387L267.654 57.6678V47.0716L276.634 41.7463L285.613 47.0716V57.6678Z" fill="#8E3FDF"/>
<path d="M268.814 115.079L264.188 117.633L259.562 115.079V109.971L264.188 107.417L268.814 109.971V115.079Z" fill="#3E28B4"/>
<path d="M268.271 114.807L263.645 117.361L259.02 114.807V109.699L263.645 107.145L268.271 109.699V114.807Z" fill="#8E3FDF"/>
<path d="M184.606 51.7568L179.98 54.3108L175.354 51.7568V46.6489L179.98 44.095L184.606 46.6489V51.7568Z" fill="#3E28B4"/>
<path d="M229.647 26.2975L225.021 28.8514L220.396 26.2975V21.1896L225.021 18.6356L229.647 21.1896V26.2975Z" fill="#3E28B4"/>
<path d="M184.06 51.4846L179.434 54.0386L174.809 51.4846V46.3767L179.434 43.8228L184.06 46.3767V51.4846Z" fill="#8E3FDF"/>
<path d="M229.101 26.0258L224.475 28.5797L219.85 26.0258V20.9178L224.475 18.3639L229.101 20.9178V26.0258Z" fill="#8E3FDF"/>
<path d="M279.082 85.5995L272.551 89.2403L266.021 85.5995V78.2637L272.551 74.5686L279.082 78.2637V85.5995Z" fill="#3E28B4"/>
<path d="M278.539 85.2195L271.736 88.8603L264.934 85.2195V77.8837L271.736 74.1886L278.539 77.8837V85.2195Z" fill="#8E3FDF"/>
<path d="M326.725 225.405L320.98 228.577L315.234 225.405V219.06L320.98 215.888L326.725 219.06V225.405Z" fill="#AB9F32"/>
<path d="M326.049 225.067L320.303 228.24L314.558 225.067V218.723L320.303 215.551L326.049 218.723V225.067Z" fill="#FFF393"/>
<path d="M183.215 161.712L177.47 164.884L171.725 161.712V155.367L177.47 152.195L183.215 155.367V161.712Z" fill="#264880"/>
<path d="M182.54 161.374L176.794 164.546L171.049 161.374V155.029L176.794 151.857L182.54 155.029V161.374Z" fill="#2687C0"/>
<path d="M283.929 133.432H194.03V195.526H283.929V133.432Z" fill="#12A15F" stroke="white" stroke-width="1.48449" stroke-miterlimit="10"/>
<path d="M206.245 166.892V163.9H208.143C210.027 163.9 211.048 162.764 211.048 161.218C211.048 159.658 210.034 158.508 208.143 158.508H203.836V166.899H206.245V166.892ZM207.826 162.117H206.223V160.327H207.826C208.236 160.327 208.567 160.866 208.567 161.312C208.567 161.751 208.236 162.117 207.826 162.117Z" fill="white"/>
<path d="M215.534 166.891C217.698 166.891 218.906 165.813 218.906 163.972C218.906 160.873 214.628 161.607 214.628 160.823C214.628 160.607 214.765 160.449 215.247 160.449C216.009 160.449 216.706 160.722 217.411 161.276L218.719 159.486C217.799 158.709 216.728 158.486 215.412 158.486C213.197 158.486 212.184 159.658 212.184 161.075C212.184 164.361 216.505 163.498 216.505 164.296C216.505 164.619 216.124 164.749 215.664 164.749C214.578 164.749 213.665 164.274 213.061 163.67L211.788 165.547C212.644 166.352 213.816 166.891 215.534 166.891Z" fill="white"/>
<path d="M223.99 166.884C226.52 166.884 228.304 165.209 228.304 162.549C228.304 159.888 226.513 158.493 223.975 158.493H220.078V166.884H223.99ZM223.975 165.065H222.508V160.327H223.99C225.298 160.327 225.924 161.556 225.924 162.678C225.924 163.735 225.198 165.065 223.975 165.065Z" fill="white"/>
<path d="M234.861 166.877V166.302H230.519C232.855 164.353 234.732 162.657 234.732 160.823C234.732 159.177 233.38 158.472 232.194 158.472C231.058 158.472 230.08 158.961 229.505 159.759L229.979 160.212C230.418 159.572 231.187 159.126 232.194 159.126C233.078 159.126 234.035 159.63 234.035 160.823C234.035 162.434 232.194 164.001 229.447 166.288V166.877H234.861Z" fill="white"/>
<path d="M244.784 166.884V158.493H242.39V161.506H239.355V158.493H236.961V166.884H239.355V163.462H242.39V166.891H244.784V166.884Z" fill="white"/>
<path d="M250.816 166.884V160.312H253.225V158.493H246.006V160.305H248.422V166.884H250.816Z" fill="white"/>
<path d="M263.477 166.885V158.494H260.27L258.854 162.384L257.437 158.494H254.446V166.885H256.841V161.715L258.307 166.885H259.393L261.068 161.715V166.885H263.477Z" fill="white"/>
<path d="M270.696 166.885V165.058H267.705V158.494H265.274V166.885H270.696Z" fill="white"/>
<path d="M274.062 161.377H274.738V160.284H274.903L275.529 161.377H276.269L275.565 160.248C275.86 160.205 276.183 159.881 276.183 159.371C276.183 158.688 275.579 158.529 274.939 158.529H274.055V161.377H274.062ZM274.731 159.097H275.062C275.234 159.097 275.507 159.112 275.507 159.407C275.507 159.709 275.234 159.716 275.062 159.716H274.731V159.097ZM272.444 159.982C272.444 161.477 273.624 162.692 275.069 162.692C276.514 162.692 277.693 161.477 277.693 159.982C277.693 158.486 276.514 157.271 275.069 157.271C273.624 157.271 272.444 158.486 272.444 159.982ZM273.127 159.982C273.127 158.81 273.983 157.882 275.076 157.882C276.169 157.882 277.024 158.81 277.024 159.982C277.024 161.154 276.169 162.081 275.076 162.081C273.976 162.081 273.127 161.154 273.127 159.982Z" fill="white"/>
<path d="M239.995 195.526V202.276" stroke="white" stroke-width="1.48449" stroke-miterlimit="10"/>
<path d="M230.53 202.276H249.456" stroke="white" stroke-width="1.48449" stroke-miterlimit="10"/>
<path d="M194.03 183.377H283.929" stroke="white" stroke-width="1.48449" stroke-miterlimit="10"/>
<path d="M300.403 162.58L291.894 167.575L283.385 162.58V152.539L291.894 147.493L300.403 152.539V162.58Z" fill="#078E50"/>
<path d="M299.371 162.066L290.862 167.061L282.353 162.066V152.025L290.862 146.979L299.371 152.025V162.066Z" fill="#28C57C"/>
<path d="M289.874 178.785L285.015 181.494L280.155 178.785V173.326L285.015 170.577L289.874 173.326V178.785Z" fill="#078E50"/>
<path d="M289.47 178.501L284.408 181.211L279.346 178.501V173.043L284.408 170.293L289.47 173.043V178.501Z" fill="#28C57C"/>
<path d="M239.657 191.477C240.59 191.477 241.346 190.721 241.346 189.789C241.346 188.857 240.59 188.102 239.657 188.102C238.723 188.102 237.967 188.857 237.967 189.789C237.967 190.721 238.723 191.477 239.657 191.477Z" fill="white"/>
<path d="M288.344 209.947L285.379 211.605L282.414 209.947V206.592L285.379 204.934L288.344 206.592V209.947Z" fill="#26447C"/>
<path d="M272.925 218.039L269.564 219.894L266.204 218.039V214.289L269.564 212.433L272.925 214.289V218.039Z" fill="#26447C"/>
<path d="M288.344 227.987L284.193 230.276L280.042 227.987V223.408L284.193 221.118L288.344 223.408V227.987Z" fill="#26447C"/>
<path d="M355.157 241.211L329.263 256.053L303.368 241.211V211.486L329.263 196.644L355.157 211.486V241.211Z" fill="#26447C"/>
<path d="M354.364 240.816L328.47 255.659L302.575 240.816V211.092L328.47 196.249L354.364 211.092V240.816Z" fill="#3162B9"/>
<path d="M322.738 207.341L316.018 211.052L309.297 207.341V199.96L316.018 196.249L322.738 199.96V207.341Z" fill="#26447C"/>
<path d="M346.128 279.238H296.665V220.965H333.822H334.059L346.128 235.21V279.238Z" fill="#3162B9" stroke="white" stroke-width="0.742244" stroke-miterlimit="10"/>
<path d="M287.95 209.553L284.985 211.211L282.02 209.553V206.197L284.985 204.539L287.95 206.197V209.553Z" fill="#6199F2"/>
<path d="M287.949 227.592L283.797 229.882L279.646 227.592V223.013L283.797 220.724L287.949 223.013V227.592Z" fill="#6199F2"/>
<path d="M272.53 217.644L269.17 219.499L265.81 217.644V213.894L269.17 212.039L272.53 213.894V217.644Z" fill="#6199F2"/>
<path d="M322.343 206.946L315.622 210.657L308.901 206.946V199.565L315.622 195.854L322.343 199.565V206.946Z" fill="#6199F2"/>
<path d="M334.4 233.276H346.498L334.321 221.118L334.4 233.276Z" fill="#37C5F9" stroke="white" stroke-width="0.742244" stroke-miterlimit="10" stroke-linecap="square" stroke-linejoin="bevel"/>
<path opacity="0.5" d="M323.29 270.185L305.737 255.343L306.488 242.869L313.367 243.54L317.044 247.25L318.704 244.132L324.239 243.658L327.916 248.04L328.746 243.816L334.636 243.935L346.061 254.514V270.185H323.29Z" fill="url(#paint1_linear_2671_9292)"/>
<path d="M307.837 243.798H311.117C311.735 243.784 312.276 243.924 312.743 244.219C313.051 244.397 313.291 244.64 313.463 244.949C313.627 245.291 313.709 245.713 313.709 246.213C313.709 246.816 313.507 247.364 313.103 247.858C312.677 248.365 312.043 248.625 311.2 248.639H307.837V243.798ZM305.563 256.636H307.837V250.787H311.292C312.835 250.76 314.008 250.266 314.81 249.307C315.592 248.396 315.982 247.385 315.982 246.275C315.982 245.452 315.828 244.74 315.52 244.137C315.225 243.513 314.841 243.033 314.368 242.698C313.805 242.252 313.25 241.958 312.701 241.814C312.153 241.704 311.584 241.649 310.994 241.649H305.563V256.636Z" fill="#37C5F9"/>
<path d="M318.235 252.997L316.743 254.704C318.341 256.074 320.251 256.759 322.472 256.759C325.908 256.718 327.663 255.265 327.738 252.401C327.738 251.339 327.406 250.407 326.741 249.605C326.069 248.79 325.03 248.286 323.624 248.094C322.911 248.005 322.349 247.926 321.938 247.858C321.197 247.721 320.659 247.474 320.323 247.118C319.987 246.768 319.819 246.378 319.819 245.946C319.832 245.226 320.083 244.685 320.57 244.322C321.036 243.972 321.619 243.798 322.318 243.798C323.669 243.825 324.907 244.209 326.031 244.949L327.296 243.078C325.918 242.084 324.296 241.567 322.431 241.526C320.882 241.54 319.685 241.944 318.842 242.739C317.971 243.541 317.535 244.596 317.535 245.905C317.535 246.994 317.882 247.919 318.574 248.68C319.246 249.42 320.227 249.896 321.516 250.109C322.236 250.212 322.897 250.304 323.501 250.386C324.817 250.613 325.469 251.284 325.455 252.401C325.428 253.765 324.44 254.46 322.493 254.488C320.847 254.474 319.428 253.977 318.235 252.997Z" fill="#37C5F9"/>
<path d="M330.145 256.636H335.236C336.361 256.636 337.31 256.389 338.085 255.896C338.867 255.437 339.477 254.854 339.916 254.148C340.081 253.881 340.221 253.624 340.338 253.378C340.447 253.124 340.53 252.836 340.585 252.514C340.701 251.877 340.759 250.753 340.759 249.143C340.759 247.628 340.722 246.563 340.646 245.946C340.55 245.329 340.321 244.74 339.957 244.178C338.942 242.506 337.42 241.663 335.391 241.649H330.145V256.636ZM332.418 243.798H335.133C336.285 243.77 337.177 244.192 337.808 245.062C338.116 245.411 338.312 245.867 338.394 246.429C338.456 246.991 338.486 247.923 338.486 249.225C338.486 250.561 338.456 251.473 338.394 251.959C338.325 252.452 338.164 252.86 337.91 253.182C337.334 254.053 336.409 254.488 335.133 254.488H332.418V243.798Z" fill="#37C5F9"/>
<path d="M382.065 132.182L352.295 149.246L322.524 132.182V98.0073L352.295 80.9429L382.065 98.0073V132.182Z" fill="#3E28B4"/>
<path d="M381.155 131.727L351.385 148.791L321.614 131.727V97.5527L351.385 80.4883L381.155 97.5527V131.727Z" fill="#7648F8"/>
<path d="M356.431 145.734L339.353 149.817L322.274 145.891L318.348 102.386H360.358L356.431 145.734Z" fill="#5831C9" stroke="white" stroke-width="1.48449" stroke-miterlimit="10"/>
<path d="M326.209 110.885H352.311L351.919 115.98H331.94L332.175 121.467H351.526L349.956 137.497L339.358 140.75L328.76 137.536L328.172 129.697H333.078L333.431 133.617L339.358 135.537L345.128 133.813L345.639 126.758L327.583 126.562L326.287 110.885" fill="white"/>
<path d="M344.793 93.2409L337.067 97.5069L329.34 93.2409V84.7543L337.067 80.4883L344.793 84.7543V93.2409Z" fill="#3F23B9"/>
<path d="M394.914 121.599L391.505 123.505L388.097 121.599V117.742L391.505 115.835L394.914 117.742V121.599Z" fill="#3F23B9"/>
<path d="M394.459 121.145L391.05 123.051L387.642 121.145V117.288L391.05 115.382L394.459 117.288V121.145Z" fill="#6A3DEA"/>
<path d="M387.113 136.518L382.341 139.15L377.568 136.518V131.253L382.341 128.621L387.113 131.253V136.518Z" fill="#3F23B9"/>
<path d="M386.658 136.064L381.886 138.696L377.113 136.064V130.8L381.886 128.167L386.658 130.8V136.064Z" fill="#6A3DEA"/>
<path d="M404.097 133.561L400.233 135.694L396.37 133.561V129.25L400.233 127.117L404.097 129.25V133.561Z" fill="#3F23B9"/>
<path d="M403.642 133.107L399.778 135.24L395.915 133.107V128.795L399.778 126.662L403.642 128.795V133.107Z" fill="#6A3DEA"/>
<path d="M344.341 92.7869L336.614 97.0529L328.888 92.7869V84.3003L336.614 80.0343L344.341 84.3003V92.7869Z" fill="#6A3DEA"/>
<path d="M162.024 173.914L132.358 190.866L102.692 173.914V139.968L132.358 123.016L162.024 139.968V173.914Z" fill="#5684C2"/>
<path d="M161.157 173.05L131.491 190.001L101.825 173.05V139.103L131.491 122.151L161.157 139.103V173.05Z" fill="#3196D2"/>
<path d="M128.412 159.965C128.412 161.095 128.308 162.191 128.1 163.253C127.915 164.314 127.544 165.26 126.989 166.09C126.434 166.898 125.636 167.555 124.595 168.063C123.577 168.548 122.236 168.79 120.57 168.79C118.627 168.79 116.985 168.328 115.643 167.405C114.302 166.483 113.434 165.041 113.041 163.08L118.003 161.868C118.072 162.468 118.338 162.976 118.801 163.391C119.287 163.806 119.83 164.014 120.432 164.014C121.056 164.014 121.542 163.864 121.889 163.564C122.236 163.241 122.49 162.849 122.652 162.387C122.814 161.926 122.907 161.43 122.93 160.899C122.976 160.346 122.999 159.838 122.999 159.377V143.665H128.412V159.965Z" fill="white"/>
<path d="M145.205 149.652C144.766 149.098 144.164 148.694 143.401 148.441C142.661 148.164 141.955 148.025 141.285 148.025C140.891 148.025 140.487 148.071 140.07 148.164C139.654 148.256 139.261 148.406 138.89 148.614C138.52 148.798 138.22 149.052 137.988 149.375C137.757 149.698 137.641 150.09 137.641 150.552C137.641 151.29 137.919 151.855 138.474 152.247C139.029 152.64 139.723 152.974 140.556 153.251C141.412 153.528 142.326 153.805 143.297 154.082C144.269 154.358 145.171 154.751 146.003 155.258C146.859 155.766 147.565 156.446 148.12 157.3C148.675 158.154 148.953 159.296 148.953 160.726C148.953 162.087 148.698 163.276 148.189 164.291C147.68 165.306 146.987 166.148 146.108 166.817C145.252 167.486 144.245 167.982 143.089 168.305C141.955 168.628 140.753 168.79 139.48 168.79C137.884 168.79 136.404 168.548 135.039 168.063C133.674 167.578 132.402 166.794 131.222 165.71L135.074 161.488C135.629 162.226 136.323 162.803 137.156 163.218C138.011 163.61 138.89 163.806 139.793 163.806C140.232 163.806 140.672 163.76 141.111 163.668C141.574 163.552 141.979 163.391 142.326 163.183C142.696 162.976 142.985 162.71 143.193 162.387C143.424 162.064 143.54 161.684 143.54 161.245C143.54 160.507 143.251 159.93 142.672 159.515C142.117 159.077 141.412 158.707 140.556 158.407C139.7 158.108 138.775 157.808 137.78 157.508C136.786 157.208 135.86 156.804 135.004 156.296C134.149 155.789 133.431 155.12 132.853 154.289C132.298 153.459 132.02 152.363 132.02 151.001C132.02 149.686 132.275 148.533 132.784 147.541C133.316 146.549 134.01 145.718 134.866 145.049C135.745 144.38 136.751 143.884 137.884 143.561C139.018 143.215 140.186 143.042 141.389 143.042C142.777 143.042 144.118 143.238 145.414 143.63C146.709 144.022 147.877 144.68 148.918 145.603L145.205 149.652Z" fill="white"/>
<path d="M152.054 282.092L145.524 285.95L138.993 282.092V274.376L145.524 270.518L152.054 274.376V282.092Z" fill="#5684C2"/>
<path d="M150.965 281.55L144.435 285.408L137.904 281.55V273.834L144.435 269.975L150.965 273.834V281.55Z" fill="#A8D0F2"/>
<path opacity="0.2" d="M230.941 238.044V232.513L226.191 229.774L221.44 232.513V238.044L226.191 240.784L230.941 238.044Z" fill="#C85327"/>
<path opacity="0.2" d="M156.051 226.758V261.967L186.509 279.518L216.971 261.967V226.758L186.509 209.206L156.051 226.758Z" fill="#C85327"/>
<path d="M154.373 225.639V260.852L184.831 278.399L215.293 260.852V225.639L184.831 208.091L154.373 225.639Z" fill="#F9BE37"/>
<path d="M229.823 236.929V231.393L225.073 228.658L220.323 231.393V236.929L225.073 239.668L229.823 236.929Z" fill="#F9BE37"/>
<path opacity="0.5" d="M172.97 257.855L196.628 271.58L215.294 260.85V237.601L183.173 219.961L189.195 235.199L178.69 238.062L171.31 243.971C171.31 243.971 171.819 244.962 170.476 247.478C169.133 249.989 172.97 257.855 172.97 257.855Z" fill="#EAAE24"/>
<path opacity="0.2" d="M201.039 259.63V275.781L215.012 283.828L228.982 275.781V259.63L215.012 251.579L201.039 259.63Z" fill="#C85327"/>
<path d="M199.919 259.067V275.222L213.892 283.269L227.865 275.222V259.067L213.892 251.02L199.919 259.067Z" fill="#F9BE37"/>
<path d="M199.205 242.175C197.645 239.885 196.851 238.164 196.638 235.307C196.479 233.171 197.369 230.701 197.369 230.701C196.266 231.443 196.256 231.364 195.529 231.97C191.747 235.132 190.758 238.297 190.641 238.705C190.634 238.734 190.627 238.752 190.627 238.752L190.641 238.705C190.641 238.705 193.597 227.005 185.367 221.56C184.682 221.109 183.109 220.212 183.109 220.212C183.109 220.212 187.196 230.346 179.88 236.357C178.44 230.414 170.837 230.339 170.837 230.339C170.837 230.339 171.422 232.411 171.514 232.898C172.748 239.358 168.969 241.405 168.204 247.509C168.292 246.807 168.257 247.086 168.204 247.513V247.516C168.204 247.516 168.204 247.516 168.204 247.513C168.204 247.516 168.204 247.516 168.204 247.516C167.605 252.309 169.862 256.023 173.336 258.528C173.499 256.836 174.183 255.159 175.137 253.757C176.214 252.173 176.767 250.983 176.913 249.004C177.023 247.527 176.409 245.817 176.409 245.817C177.171 246.33 177.179 246.276 177.682 246.695C179.809 248.473 180.659 250.251 180.946 251.008C180.957 251.001 180.964 250.997 180.975 250.99C180.613 249.334 179.589 242.881 184.711 239.494C185.182 239.182 186.274 238.562 186.274 238.562C186.274 238.562 183.374 244.975 189.758 250.183C189.617 248.05 190.421 246.082 191.924 244.566C192.743 243.742 194.214 243.347 194.214 243.347C194.214 243.347 193.81 244.781 193.746 245.118C192.892 249.588 196.603 253.065 195.812 257.299C195.664 258.091 195.451 258.862 195.153 259.596H195.508C197.39 258.578 199.137 257.259 200.332 255.445C203.051 251.323 201.828 246.025 199.205 242.175Z" fill="white"/>
<path d="M175.409 106.517L167.878 110.904L160.346 106.517V97.7851L167.878 93.3981L175.409 97.7851V106.517Z" fill="#26447C"/>
<path d="M174.831 105.939L167.299 110.326L159.768 105.939V97.207L167.299 92.8199L174.831 97.207V105.939Z" fill="#2687C0"/>
<path d="M182.972 118.526L180.043 120.113L177.114 118.526V115.267L180.043 113.637L182.972 115.267V118.526Z" fill="#26447C"/>
<path d="M182.783 118.181L179.854 119.768L176.925 118.181V114.922L179.854 113.292L182.783 114.922V118.181Z" fill="#2687C0"/>
<path d="M175.67 128.794L171.485 131.176L167.301 128.794V124.073L171.485 121.733L175.67 124.073V128.794Z" fill="#26447C"/>
<path d="M175.25 128.25L171.065 130.59L166.881 128.25V123.529L171.065 121.147L175.25 123.529V128.25Z" fill="#2687C0"/>
<defs>
<filter id="filter0_d_2671_9292" x="35.9464" y="2.44156" width="415.325" height="415.329" filterUnits="userSpaceOnUse" color-interpolation-filters="sRGB">
<feFlood flood-opacity="0" result="BackgroundImageFix"/>
<feColorMatrix in="SourceAlpha" type="matrix" values="0 0 0 0 0 0 0 0 0 0 0 0 0 0 0 0 0 0 127 0" result="hardAlpha"/>
<feOffset dy="32.6587"/>
<feGaussianBlur stdDeviation="18.5561"/>
<feColorMatrix type="matrix" values="0 0 0 0 0 0 0 0 0 0.226779 0 0 0 0 0.458333 0 0 0 0.08 0"/>
<feBlend mode="normal" in2="BackgroundImageFix" result="effect1_dropShadow_2671_9292"/>
<feBlend mode="normal" in="SourceGraphic" in2="effect1_dropShadow_2671_9292" result="shape"/>
</filter>
<filter id="filter1_d_2671_9292" x="0.887814" y="0.546539" width="415.325" height="415.329" filterUnits="userSpaceOnUse" color-interpolation-filters="sRGB">
<feFlood flood-opacity="0" result="BackgroundImageFix"/>
<feColorMatrix in="SourceAlpha" type="matrix" values="0 0 0 0 0 0 0 0 0 0 0 0 0 0 0 0 0 0 127 0" result="hardAlpha"/>
<feOffset dy="32.6587"/>
<feGaussianBlur stdDeviation="18.5561"/>
<feColorMatrix type="matrix" values="0 0 0 0 0 0 0 0 0 0.226779 0 0 0 0 0.458333 0 0 0 0.08 0"/>
<feBlend mode="normal" in2="BackgroundImageFix" result="effect1_dropShadow_2671_9292"/>
<feBlend mode="normal" in="SourceGraphic" in2="effect1_dropShadow_2671_9292" result="shape"/>
</filter>
<linearGradient id="paint0_linear_2671_9292" x1="222.356" y1="60.8502" x2="239.696" y2="103.117" gradientUnits="userSpaceOnUse">
<stop stop-color="#681CB6"/>
<stop offset="1" stop-color="#8E3FDF" stop-opacity="0"/>
</linearGradient>
<linearGradient id="paint1_linear_2671_9292" x1="310.52" y1="235.32" x2="336.223" y2="268.19" gradientUnits="userSpaceOnUse">
<stop stop-color="#11427C"/>
<stop offset="1" stop-color="#11427C" stop-opacity="0"/>
</linearGradient>
</defs>
</svg>
